<?xml version="1.0"?>
<svg xmlns="http://www.w3.org/2000/svg" xmlns:xlink="http://www.w3.org/1999/xlink" xmlns:svgjs="http://svgjs.com/svgjs" version="1.1" width="512" height="512" x="0" y="0" viewBox="0 0 512 512" style="enable-background:new 0 0 512 512" xml:space="preserve" class=""><g><link type="text/css" rel="stylesheet" id="dark-mode-custom-link"/><link type="text/css" rel="stylesheet" id="dark-mode-general-link"/><style lang="en" type="text/css" id="dark-mode-custom-style"/><style lang="en" type="text/css" id="dark-mode-native-style"/><path xmlns="http://www.w3.org/2000/svg" d="m497 142.464844h-26.773438v206.207031c0 11.042969-8.953124 20-20 20h-307.761718v26.230469c0 8.285156 6.714844 15 15 15h339.535156c8.285156 0 15-6.714844 15-15v-237.4375c0-8.285156-6.714844-15-15-15zm0 0" fill="#ffffff" data-original="#000000" style=""/><path xmlns="http://www.w3.org/2000/svg" d="m440.226562 323.671875v-237.441406c0-8.28125-6.71875-15-15-15h-25.691406v206.207031c0 11.046875-8.953125 20-20 20h-308.847656v26.234375c0 8.28125 6.714844 15 15 15h339.539062c8.28125 0 15-6.71875 15-15zm0 0" fill="#ffffff" data-original="#000000" style=""/><path xmlns="http://www.w3.org/2000/svg" d="m369.535156 252.4375v-237.4375c0-8.285156-6.714844-15-15-15h-339.535156c-8.285156 0-15 6.714844-15 15v237.4375c0 8.285156 6.714844 15 15 15h339.535156c8.285156 0 15-6.714844 15-15zm-30-15h-309.535156v-207.4375h309.535156zm0 0" fill="#ffffff" data-original="#000000" style=""/><path xmlns="http://www.w3.org/2000/svg" d="m60 60h249.535156v147.4375h-249.535156zm0 0" fill="#ffffff" data-original="#000000" style=""/></g></svg>
